HIERARCHY
ROOT Hips
{
	OFFSET 0.000000 89.005402 0.000000
	CHANNELS 6 Xposition Yposition Zposition Xrotation Yrotation Zrotation
	JOINT Spine
	{
		OFFSET 0.116900 10.681000 0.373400
		CHANNELS 3 Xrotation Yrotation Zrotation
		JOINT Spine1
		{
			OFFSET 0.000000 13.840401 0.053500
			CHANNELS 3 Xrotation Yrotation Zrotation
			JOINT Spine2
			{
				OFFSET 0.000000 14.712700 -0.366200
				CHANNELS 3 Xrotation Yrotation Zrotation
				JOINT Neck
				{
					OFFSET 0.000000 35.415497 -3.314200
					CHANNELS 3 Xrotation Yrotation Zrotation
					JOINT Head
					{
						OFFSET 0.000000 16.899200 1.218300
						CHANNELS 3 Xrotation Yrotation Zrotation
						JOINT HeadTop_End
						{
							OFFSET 0.000000 22.206207 2.192500
							CHANNELS 3 Xrotation Yrotation Zrotation
							End Site
							{
								OFFSET 0.000000 22.314178 0.000000
							}
						}
					}
				}
				JOINT LeftShoulder
				{
					OFFSET 12.896400 26.716293 -4.548400
					CHANNELS 3 Xrotation Yrotation Zrotation
					JOINT LeftArm
					{
						OFFSET 19.027000 -4.857010 -1.718400
						CHANNELS 3 Xrotation Yrotation Zrotation
						JOINT LeftForeArm
						{
							OFFSET 24.179897 0.000000 0.000000
							CHANNELS 3 Xrotation Yrotation Zrotation
							JOINT LeftHand
							{
								OFFSET 27.156403 0.000000 0.000000
								CHANNELS 3 Xrotation Yrotation Zrotation
								JOINT LeftHandIndex1
								{
									OFFSET 16.441200 0.000000 0.000000
									CHANNELS 3 Xrotation Yrotation Zrotation
									JOINT LeftHandIndex2
									{
										OFFSET 4.821899 0.000000 0.000000
										CHANNELS 3 Xrotation Yrotation Zrotation
										JOINT LeftHandIndex3
										{
											OFFSET 6.386497 0.000000 0.000000
											CHANNELS 3 Xrotation Yrotation Zrotation
											JOINT LeftHandIndex4
											{
												OFFSET 5.188988 0.000000 0.000000
												CHANNELS 3 Xrotation Yrotation Zrotation
												End Site
												{
													OFFSET -0.178703 5.185913 0.000177
												}
											}
										}
									}
								}
								JOINT LeftHandThumb1
								{
									OFFSET 6.534897 -5.032593 5.900300
									CHANNELS 3 Xrotation Yrotation Zrotation
									JOINT LeftHandThumb2
									{
										OFFSET 3.818176 -2.204422 2.204423
										CHANNELS 3 Xrotation Yrotation Zrotation
										JOINT LeftHandThumb3
										{
											OFFSET 3.252098 -1.877594 1.877601
											CHANNELS 3 Xrotation Yrotation Zrotation
											JOINT LeftHandThumb4
											{
												OFFSET 5.251778 -3.032120 3.032117
												CHANNELS 3 Xrotation Yrotation Zrotation
												End Site
												{
													OFFSET 0.000023 6.780014 0.000000
												}
											}
										}
									}
								}
							}
						}
					}
				}
				JOINT RightShoulder
				{
					OFFSET -12.896300 26.716293 -4.548400
					CHANNELS 3 Xrotation Yrotation Zrotation
					JOINT RightArm
					{
						OFFSET -19.027000 -4.857010 -1.718400
						CHANNELS 3 Xrotation Yrotation Zrotation
						JOINT RightForeArm
						{
							OFFSET -24.179897 0.000000 0.000000
							CHANNELS 3 Xrotation Yrotation Zrotation
							JOINT RightHand
							{
								OFFSET -27.156403 0.000000 0.000000
								CHANNELS 3 Xrotation Yrotation Zrotation
								JOINT RightHandThumb1
								{
									OFFSET -6.591202 -4.852203 5.988100
									CHANNELS 3 Xrotation Yrotation Zrotation
									JOINT RightHandThumb2
									{
										OFFSET -3.818176 -2.204422 2.204423
										CHANNELS 3 Xrotation Yrotation Zrotation
										JOINT RightHandThumb3
										{
											OFFSET -3.252098 -1.877594 1.877601
											CHANNELS 3 Xrotation Yrotation Zrotation
											JOINT RightHandThumb4
											{
												OFFSET -5.251778 -3.032120 3.032117
												CHANNELS 3 Xrotation Yrotation Zrotation
												End Site
												{
													OFFSET -0.000023 6.780014 0.000000
												}
											}
										}
									}
								}
								JOINT RightHandIndex1
								{
									OFFSET -16.029404 0.000000 0.000000
									CHANNELS 3 Xrotation Yrotation Zrotation
									JOINT RightHandIndex2
									{
										OFFSET -5.213303 0.000000 0.000000
										CHANNELS 3 Xrotation Yrotation Zrotation
										JOINT RightHandIndex3
										{
											OFFSET -6.386528 0.000000 0.000000
											CHANNELS 3 Xrotation Yrotation Zrotation
											JOINT RightHandIndex4
											{
												OFFSET -5.189026 0.000000 0.000000
												CHANNELS 3 Xrotation Yrotation Zrotation
												End Site
												{
													OFFSET 0.236702 5.183624 0.001972
												}
											}
										}
									}
								}
							}
						}
					}
				}
			}
		}
	}
	JOINT LeftUpLeg
	{
		OFFSET 14.073000 -7.904099 -1.463000
		CHANNELS 3 Xrotation Yrotation Zrotation
		JOINT LeftLeg
		{
			OFFSET -0.109806 -34.073280 4.093200
			CHANNELS 3 Xrotation Yrotation Zrotation
			JOINT LeftFoot
			{
				OFFSET 0.109806 -29.899420 -6.319000
				CHANNELS 3 Xrotation Yrotation Zrotation
				JOINT LeftToeBase
				{
					OFFSET 1.551100 -14.988700 20.535801
					CHANNELS 3 Xrotation Yrotation Zrotation
					JOINT LeftToe_End
					{
						OFFSET 0.221200 0.570800 13.248301
						CHANNELS 3 Xrotation Yrotation Zrotation
						End Site
						{
							OFFSET 0.000000 13.262435 0.000000
						}
					}
				}
			}
		}
	}
	JOINT RightUpLeg
	{
		OFFSET -13.839300 -7.904099 -1.463000
		CHANNELS 3 Xrotation Yrotation Zrotation
		JOINT RightLeg
		{
			OFFSET 0.109694 -34.073219 4.093300
			CHANNELS 3 Xrotation Yrotation Zrotation
			JOINT RightFoot
			{
				OFFSET -0.109694 -29.899384 -6.319200
				CHANNELS 3 Xrotation Yrotation Zrotation
				JOINT RightToeBase
				{
					OFFSET -1.551100 -14.988700 20.535801
					CHANNELS 3 Xrotation Yrotation Zrotation
					JOINT RightToe_End
					{
						OFFSET -0.221200 0.570900 13.248299
						CHANNELS 3 Xrotation Yrotation Zrotation
						End Site
						{
							OFFSET 0.000000 13.262440 0.000000
						}
					}
				}
			}
		}
	}
}
MOTION
Frames: 9
Frame Time: 0.033333
21.713705 24.660568 -26.140839 46.795337 -5.819973 16.664818 54.491458 2.263974 -0.055059 2.556541 0.138247 -0.806903 2.565939 0.124639 -0.815856 11.301643 -7.991375 -2.273627 -34.595574 -1.915084 -15.536850 -0.000000 -0.000000 0.000000 1.242777 -17.149845 -2.915490 -35.655346 -17.835080 -58.250531 -0.000008 -136.741890 0.000002 35.353527 2.267891 4.812166 0.074563 2.008532 3.434545 0.654940 2.693536 -27.328331 0.778635 2.920199 -29.853469 0.000000 -0.000003 0.000001 33.903618 -6.929772 13.849947 7.219654 11.712682 1.079904 -4.198184 -21.699434 7.404050 -0.000000 0.000002 0.000000 1.305477 19.893614 7.235597 -65.827656 5.514151 0.686708 -0.000002 141.057067 -0.000005 14.116520 1.001465 1.883651 5.164900 -0.153420 -12.736729 6.342060 -14.405757 -2.105032 -5.504767 -5.510963 -14.718520 -0.000001 0.000001 -0.000001 -5.321426 15.313441 17.478131 1.351467 -3.282305 44.749023 0.158022 1.204124 -14.952705 0.000003 0.000001 0.000001 -46.880110 2.085749 30.141744 137.369530 -18.663878 -3.622825 -19.812270 -8.194507 4.741145 -95.550180 28.761394 -22.041683 0.000000 0.000001 0.000000 -90.345685 49.294575 -6.643962 133.353433 15.557545 3.296518 46.338087 18.272622 19.721919 10.410741 -26.610489 -31.098650 -0.000001 -0.000002 -0.000000 
21.697392 24.649750 -26.157562 46.748677 -5.814129 16.685297 54.562304 2.271079 -0.050718 2.553770 0.062222 -0.850681 2.560565 0.047127 -0.857154 11.264891 -7.994100 -2.230205 -34.686166 -1.923960 -15.469407 -0.000001 0.000000 -0.000001 1.241925 -17.245970 -3.083520 -35.788757 -17.812657 -57.848608 -0.000011 -136.845763 0.000008 35.512715 2.414144 4.616968 0.074549 2.008554 3.434564 0.653053 2.689891 -27.288105 0.774987 2.913843 -29.781821 0.000000 -0.000002 0.000000 34.004373 -7.192452 13.788724 7.242510 11.469051 1.048191 -4.160562 -22.763731 7.043683 -0.000000 0.000001 0.000001 1.305482 19.893614 7.235591 -65.784059 5.548122 0.662396 -0.000004 141.050687 -0.000002 14.134869 0.891258 1.719247 5.164907 -0.153429 -12.736740 6.342056 -14.405747 -2.105014 -5.504753 -5.510968 -14.718520 0.000000 0.000000 0.000000 -5.321416 15.313448 17.478138 1.316687 -3.246907 44.138417 0.158021 1.204128 -14.952701 0.000001 -0.000000 0.000001 -46.802946 1.928206 30.219923 137.337947 -18.829667 -3.685090 -19.783073 -8.462732 4.789595 -96.021436 28.565605 -21.533698 -0.000000 0.000001 -0.000000 -90.457659 49.471354 -6.561312 133.318326 15.731218 3.389253 46.328114 18.469581 19.632568 11.177706 -26.602824 -30.405601 -0.000001 0.000002 0.000000 
21.683743 24.643524 -26.178440 46.668056 -5.806563 16.705082 54.660372 2.255367 -0.035342 2.552037 -0.023057 -0.893147 2.555773 -0.039631 -0.896978 11.232774 -7.976548 -2.210687 -34.798120 -1.916562 -15.366181 0.000000 -0.000000 -0.000000 1.240244 -17.347227 -3.258829 -35.942218 -17.766340 -57.430532 0.000020 -136.953025 0.000016 35.654551 2.681518 4.355481 0.074552 2.008541 3.434544 0.653325 2.690388 -27.293631 0.772342 2.909272 -29.730249 -0.000000 0.000001 0.000000 34.093002 -7.423021 13.734954 7.262732 11.255707 1.020273 -4.130031 -23.694606 6.721580 -0.000000 -0.000001 0.000001 1.305479 19.893618 7.235588 -65.699952 5.617107 0.656905 0.000015 141.005431 -0.000014 14.172979 0.805932 1.526006 5.164910 -0.153427 -12.736735 6.342062 -14.405748 -2.105027 -5.504767 -5.510960 -14.718510 0.000003 -0.000001 -0.000000 -5.321403 15.313448 17.478131 1.283190 -3.212076 43.543750 0.158017 1.204132 -14.952703 0.000001 0.000001 0.000000 -46.710752 1.747078 30.300734 137.310325 -19.001740 -3.745420 -19.726025 -8.667049 4.801304 -96.353820 28.395434 -21.168583 0.000000 0.000000 -0.000000 -90.492937 49.721192 -6.541186 133.286839 15.944026 3.509615 46.309956 18.649995 19.561617 11.818060 -26.586014 -29.834584 -0.000002 -0.000000 -0.000000 
21.673702 24.633430 -26.205303 46.568742 -5.786166 16.729273 54.768224 2.235092 -0.020440 2.551431 -0.123038 -0.935243 2.551542 -0.141133 -0.936128 11.192880 -7.924189 -2.167494 -34.890710 -1.903328 -15.192593 0.000000 0.000000 0.000000 1.237569 -17.453408 -3.440816 -36.129054 -17.741884 -57.016329 0.000002 -137.058373 -0.000003 35.772064 3.083209 4.009041 0.074546 2.008544 3.434551 0.655479 2.694582 -27.339874 0.770730 2.906412 -29.698134 -0.000000 0.000004 -0.000000 34.170337 -7.623412 13.688181 7.280531 11.070793 0.995966 -4.104086 -24.500700 6.437342 -0.000002 -0.000001 -0.000000 1.305483 19.893614 7.235591 -65.614274 5.663488 0.661906 0.000020 140.941623 -0.000011 14.200153 0.765783 1.312813 5.164911 -0.153446 -12.736751 6.342046 -14.405743 -2.105021 -5.504766 -5.510986 -14.718520 -0.000000 -0.000001 -0.000000 -5.321411 15.313436 17.478128 1.251217 -3.178136 42.969980 0.158034 1.204120 -14.952705 -0.000001 0.000000 -0.000000 -46.591118 1.546497 30.386723 137.297253 -19.192251 -3.806296 -19.692936 -8.844082 4.794602 -96.548965 28.292124 -20.918861 0.000000 0.000001 0.000000 -90.475083 49.977358 -6.569030 133.243221 16.160151 3.627095 46.326178 18.847217 19.493906 12.442749 -26.532109 -29.257108 -0.000001 0.000000 -0.000000 
21.652260 24.615875 -26.243679 46.485188 -5.784149 16.728438 54.850626 2.210571 -0.017698 2.551843 -0.247102 -0.972579 2.547337 -0.266836 -0.970288 11.172479 -7.824960 -2.088130 -35.026685 -1.764436 -15.001098 -0.000000 -0.000000 0.000000 1.233909 -17.564287 -3.628795 -36.330493 -17.668111 -56.578043 -0.000007 -137.201111 0.000002 35.861751 3.547556 3.630757 0.074540 2.008540 3.434549 0.659343 2.702029 -27.421772 0.770035 2.905236 -29.684938 0.000000 -0.000002 -0.000000 34.237177 -7.795636 13.647920 7.296064 10.912432 0.975052 -4.080607 -25.190643 6.190236 -0.000000 0.000001 0.000000 1.305467 19.893611 7.235591 -65.433199 5.748977 0.701112 0.000010 140.820469 -0.000025 14.260451 0.771345 1.011760 5.164920 -0.153427 -12.736750 6.342065 -14.405721 -2.105009 -5.504769 -5.510997 -14.718527 -0.000002 -0.000002 0.000000 -5.321395 15.313446 17.478130 1.220992 -3.145447 42.422179 0.158030 1.204124 -14.952705 0.000005 -0.000002 0.000001 -46.501970 1.321802 30.528972 137.302976 -19.412373 -3.871499 -19.627857 -9.014662 4.837224 -96.809312 28.163626 -20.637379 0.000000 -0.000001 0.000000 -90.375738 50.248872 -6.642298 133.183812 16.377291 3.752919 46.385351 19.055803 19.580662 12.662751 -26.450263 -29.028833 -0.000002 -0.000001 -0.000001 
21.633551 24.596191 -26.286949 46.384501 -5.788212 16.711041 54.951515 2.180343 0.006446 2.554435 -0.394069 -1.014227 2.544410 -0.415594 -1.007909 11.143019 -7.690143 -1.985020 -35.087232 -1.582890 -14.764402 0.000001 0.000000 -0.000000 1.229168 -17.679648 -3.822147 -36.571794 -17.550859 -56.121233 -0.000025 -137.387671 -0.000006 35.918404 3.996563 3.280877 0.074556 2.008523 3.434535 0.664654 2.712242 -27.534306 0.770318 2.905700 -29.690050 -0.000000 -0.000002 0.000000 34.294298 -7.941644 13.613727 7.309507 10.778734 0.957311 -4.057886 -25.772918 5.979120 -0.000001 0.000001 0.000000 1.305465 19.893607 7.235592 -65.218539 5.900731 0.760707 -0.000011 140.655520 -0.000011 14.322735 0.791815 0.665315 5.164910 -0.153427 -12.736739 6.342065 -14.405745 -2.105021 -5.504770 -5.510956 -14.718513 -0.000001 0.000000 0.000000 -5.321428 15.313438 17.478136 1.192775 -3.114322 41.905280 0.158033 1.204128 -14.952703 0.000000 -0.000000 -0.000000 -46.380376 1.105348 30.690673 137.333985 -19.639140 -3.934416 -19.599668 -9.160904 4.894969 -96.976535 28.103531 -20.438663 -0.000000 -0.000001 -0.000000 -90.295538 50.531208 -6.694828 133.118283 16.609420 3.890697 46.463810 19.254092 19.627092 12.926315 -26.364293 -28.758324 -0.000000 0.000002 0.000000 
21.627499 24.571915 -26.323105 46.307183 -5.787577 16.694891 55.037231 2.142198 0.030541 2.547509 -0.561608 -1.056591 2.531077 -0.585087 -1.045710 11.125068 -7.522700 -1.842019 -35.200807 -1.361469 -14.488865 -0.000000 0.000000 -0.000000 1.223258 -17.799244 -4.020241 -36.819269 -17.424417 -55.658081 0.000004 -137.603204 -0.000002 35.937921 4.361372 3.013783 0.074553 2.008536 3.434543 0.671202 2.724762 -27.672416 0.771486 2.907738 -29.712935 0.000000 -0.000003 0.000001 34.342427 -8.063389 13.585146 7.321028 10.667861 0.942527 -4.034679 -26.256028 5.802417 0.000003 0.000001 0.000002 1.305493 19.893619 7.235592 -64.965501 6.055101 0.842489 0.000001 140.465163 0.000000 14.385934 0.860254 0.277121 5.164904 -0.153430 -12.736738 6.342055 -14.405753 -2.105027 -5.504772 -5.510958 -14.718506 0.000004 -0.000001 0.000000 -5.321420 15.313450 17.478131 1.166763 -3.085134 41.424295 0.158031 1.204127 -14.952695 0.000002 -0.000001 0.000000 -46.230699 0.905379 30.837023 137.377507 -19.858895 -3.990320 -19.647691 -9.248023 4.909295 -96.947971 28.148582 -20.411119 -0.000000 0.000001 -0.000000 -90.414793 50.840103 -6.626964 133.013044 16.881011 4.059628 46.538546 19.592987 19.495465 13.909114 -26.246405 -27.841282 -0.000002 -0.000000 -0.000000 
21.617935 24.549606 -26.366329 46.185066 -5.790890 16.669102 55.165942 2.101387 0.078568 2.534200 -0.747509 -1.102558 2.510588 -0.773048 -1.086052 11.133266 -7.316511 -1.685067 -35.373693 -1.112401 -14.107537 0.000000 -0.000000 0.000000 1.216147 -17.922860 -4.222440 -37.100652 -17.275949 -55.185804 0.000007 -137.819735 -0.000002 35.942583 4.671604 2.807302 0.074529 2.008548 3.434548 0.678787 2.739105 -27.831062 0.773503 2.911289 -29.752984 -0.000000 -0.000003 -0.000000 34.382339 -8.162842 13.561710 7.330796 10.577870 0.930447 -4.010031 -26.648326 5.658267 -0.000001 -0.000002 0.000001 1.305478 19.893618 7.235592 -64.671291 6.254380 0.948169 -0.000004 140.221256 -0.000006 14.459773 0.966026 -0.136205 5.163724 -0.155145 -12.739422 6.340328 -14.401304 -2.104258 -5.504766 -5.510977 -14.718527 -0.000002 -0.000000 0.000000 -5.318281 15.307250 17.473857 1.142088 -3.056973 40.963479 0.158029 1.204124 -14.952700 0.000001 -0.000001 -0.000000 -46.130404 0.681324 30.971944 137.407628 -20.124440 -4.061891 -19.559847 -9.407897 4.999344 -97.324759 28.011921 -20.032550 -0.000000 -0.000000 -0.000000 -90.397608 51.351442 -6.671517 132.883857 17.256744 4.314683 46.565098 20.057209 19.415429 14.880885 -26.107954 -26.953943 -0.000001 -0.000001 -0.000001 
21.616154 24.517426 -26.416405 46.050863 -5.803899 16.627271 55.255127 2.054075 0.121543 2.526972 -0.949599 -1.143712 2.495447 -0.977116 -1.120987 11.150568 -7.084316 -1.511282 -35.494004 -0.828677 -13.710650 -0.000000 0.000000 0.000000 1.207795 -18.050259 -4.428095 -37.396525 -17.080976 -54.693751 -0.000004 -138.013111 0.000008 35.945742 4.959221 2.633222 0.074567 2.008547 3.434551 0.687086 2.754839 -28.005207 0.776392 2.916302 -29.809609 0.000000 0.000003 0.000000 34.414782 -8.242009 13.542978 7.338959 10.506961 0.920869 -3.983349 -26.958099 5.544471 -0.000001 0.000001 0.000001 1.305474 19.893611 7.235586 -64.256951 6.495038 1.095729 0.000002 139.897137 -0.000004 14.591936 1.123921 -0.612307 5.158987 -0.161961 -12.750055 6.333457 -14.383632 -2.101215 -5.504760 -5.510982 -14.718520 0.000001 0.000001 -0.000000 -5.305833 15.282683 17.456888 1.116634 -3.027458 40.484003 0.158025 1.204127 -14.952696 -0.000000 -0.000001 0.000001 -45.965141 0.446780 31.150153 137.465084 -20.409372 -4.140054 -19.536699 -9.595770 5.107733 -97.662778 27.899871 -19.682035 -0.000000 -0.000001 0.000000 -90.486817 51.717298 -6.611716 132.765695 17.579261 4.519615 46.650732 20.473342 19.269384 15.996687 -25.898331 -25.912848 0.000000 0.000001 -0.000000 
